<svg width="64" height="64" viewBox="0 0 64 64" fill="none" xmlns="http://www.w3.org/2000/svg">
  <rect width="64" height="64" rx="18" fill="#000000"/>
  <path d="M32 8L51 16V34C51 45.7 43.3 55.8 32 61C20.7 55.8 13 45.7 13 34V16L32 8Z" fill="#111111" stroke="#D4AF37" stroke-width="2.5"/>
  <path d="M24 42V23.5C24 22.1 25.1 21 26.5 21H30.2C34.6 21 37.4 23.4 37.4 27.2C37.4 29.8 35.9 31.6 33.5 32.4L38.1 42H33.8L29.7 33H28.8V42H24ZM28.8 28.7H30.5C32.2 28.7 33.1 28 33.1 26.8C33.1 25.7 32.2 25 30.5 25H28.8V28.7Z" fill="#D4AF37"/>
  <path d="M40 21H43.8C46.9 21 48.5 22.6 48.5 25.1V42H44.7V35.4H41.2V42H37.4V24.8C37.4 22.2 38.7 21 40 21ZM44.7 32.1V25.9C44.7 25 44.2 24.6 43.3 24.6H41.2V32.1H44.7Z" fill="#D4AF37"/>
</svg>
