<svg width="512" height="512" viewBox="0 0 512 512" fill="none" xmlns="http://www.w3.org/2000/svg">
  <defs>
    <linearGradient id="gold" x1="92" y1="88" x2="430" y2="446" gradientUnits="userSpaceOnUse">
      <stop offset="0" stop-color="#F7DE8A"/>
      <stop offset="0.5" stop-color="#D4AF37"/>
      <stop offset="1" stop-color="#B8860B"/>
    </linearGradient>
    <linearGradient id="green" x1="132" y1="84" x2="380" y2="440" gradientUnits="userSpaceOnUse">
      <stop offset="0" stop-color="#4D5B53"/>
      <stop offset="0.55" stop-color="#33403A"/>
      <stop offset="1" stop-color="#1D2421"/>
    </linearGradient>
  </defs>
  <path
    d="M172 134C116 185 88 261 100 340C114 428 170 486 253 504C311 517 367 504 417 468"
    stroke="url(#gold)"
    stroke-width="16"
    stroke-linecap="round"
    fill="none"
  />
  <path
    d="M306 228C350 215 392 225 425 254C386 239 351 240 318 252C300 259 285 269 273 281C278 257 290 236 306 228Z"
    fill="url(#gold)"
  />
  <path
    d="M292 395C340 394 378 414 402 447C374 459 346 461 317 454C299 450 285 442 273 430C281 416 286 402 292 395Z"
    fill="url(#gold)"
  />
  <path
    d="M315 108C262 67 186 72 142 120C98 167 97 236 142 280C177 314 229 333 273 353C333 380 348 407 344 439C338 486 286 508 231 497C184 488 145 466 118 434"
    stroke="url(#green)"
    stroke-width="72"
    stroke-linecap="square"
    stroke-linejoin="round"
    fill="none"
  />
</svg>
