<svg width="64" height="64" viewBox="0 0 64 64" fill="none" xmlns="http://www.w3.org/2000/svg">
  <defs>
    <linearGradient id="gold" x1="10" y1="10" x2="54" y2="54" gradientUnits="userSpaceOnUse">
      <stop offset="0" stop-color="#F7DE8A"/>
      <stop offset="0.5" stop-color="#D4AF37"/>
      <stop offset="1" stop-color="#B8860B"/>
    </linearGradient>
    <linearGradient id="green" x1="14" y1="8" x2="46" y2="54" gradientUnits="userSpaceOnUse">
      <stop offset="0" stop-color="#4D5B53"/>
      <stop offset="0.55" stop-color="#33403A"/>
      <stop offset="1" stop-color="#1D2421"/>
    </linearGradient>
  </defs>
  <rect width="64" height="64" rx="18" fill="#050505"/>
  <path d="M20 16C15.4 20.6 13 27.2 13.8 34.2C14.8 42.1 19.3 47.5 26 50.2" stroke="url(#gold)" stroke-width="2.8" stroke-linecap="round" fill="none"/>
  <path d="M34.2 25.2C38.1 24 41.9 24.4 44.8 26.8C41.2 25.7 38.2 25.8 35.3 26.9C33.8 27.5 32.6 28.4 31.6 29.5C31.9 27.7 32.8 26.1 34.2 25.2Z" fill="url(#gold)"/>
  <path d="M33.3 37.6C37.4 37.6 40.6 39.2 42.7 42.1C40.3 43.1 37.9 43.3 35.4 42.7C33.9 42.3 32.8 41.7 31.8 40.8C32.4 39.5 32.8 38.4 33.3 37.6Z" fill="url(#gold)"/>
  <path
    d="M35.2 16.5C31.1 13.2 25.2 13.6 21.8 17.4C18.4 21.1 18.3 26.6 21.8 30.2C24.6 32.9 28.7 34.4 32.1 35.9C36.8 38 38.1 40.1 37.8 42.7C37.4 46.4 33.7 48.1 29.7 47.3C26.3 46.6 23.5 45 21.5 42.5"
    stroke="url(#green)"
    stroke-width="8"
    stroke-linecap="square"
    stroke-linejoin="round"
    fill="none"
  />
</svg>
